<svg height="512pt" viewBox="0 0 512 512.00125" width="512pt" xmlns="http://www.w3.org/2000/svg"><path d="m496.125 157.28125-141.417969-141.417969c-7.808593-7.808593-20.46875-7.808593-28.277343 0-7.8125 7.8125-7.8125 20.46875 0 28.28125l3.527343 3.539063-23.597656 124.75c-.75 3.949218-2.671875 7.578125-5.511719 10.417968.101563-.101562-23.871094 23.882813-248.425781 248.4375l-42.429687 14.140626 56.570312 56.566406 14.140625-42.429688 53.566406-53.566406c3.382813 9.488281 8.859375 18.386719 16.453125 25.976562 27.335938 27.339844 71.65625 27.339844 98.996094 0l70.710938-70.707031c27.328124-27.339843 27.328124-71.660156 0-99-7.589844-7.589843-16.492188-13.078125-25.980469-16.449219l34.449219-34.4375c2.988281-2.992187 6.851562-4.960937 11.019531-5.621093l127.929687-20.199219c7.808594 7.808594 20.46875 7.808594 28.277344 0 7.8125-7.8125 7.8125-20.46875 0-28.28125zm-203.984375 175.699219c-16.761719 16.765625 28.972656-28.964844-70.710937 70.71875-11.699219 11.691406-30.730469 11.691406-42.417969 0-11.703125-11.699219-11.703125-30.730469 0-42.429688 28.691406-28.695312 5.503906-5.523437 70.707031-70.710937 11.691406-11.699219 30.71875-11.699219 42.421875 0 11.699219 11.703125 11.699219 30.730468 0 42.421875zm0 0" fill="#fbc56d"/><path d="m404.207031 121.921875c3.898438-3.898437 3.898438-10.230469 0-14.140625-3.910156-3.898438-10.238281-3.898438-14.140625 0-3.910156 3.910156-3.910156 10.242188 0 14.140625 3.902344 3.910156 10.230469 3.910156 14.140625 0zm0 0"/><path d="m2.863281 452.4375c.019531.019531.039063.042969.058594.0625l56.566406 56.570312c5.28125 5.277344 14.222657 3.105469 16.558594-3.910156l13.394531-40.191406 41.867188-41.859375c3.398437 5.765625 7.507812 11.109375 12.339844 15.941406 31.191406 31.1875 81.945312 31.195313 113.144531 0l70.707031-70.710937c31.183594-31.191406 31.183594-81.945313 0-113.140625-4.839844-4.835938-10.179688-8.945313-15.941406-12.34375l24.410156-24.402344c1.488281-1.488281 3.445312-2.488281 5.507812-2.8125l123.511719-19.5c11.605469 8.015625 27.738281 6.964844 38.210938-3.507813 11.722656-11.722656 11.722656-30.695312 0-42.421874l-141.421875-141.417969c-11.722656-11.722657-30.695313-11.722657-42.421875 0-11.652344 11.65625-11.71875 30.476562-.203125 42.207031l-22.617188 119.566406c-.378906 1.984375-1.332031 3.789063-2.757812 5.214844 0 0-79.335938 79.332031-79.421875 79.421875l-7.0625-7.070313c-3.902344-3.90625-10.234375-3.910156-14.140625-.003906-3.90625 3.902344-3.910156 10.234375-.007813 14.140625l7.070313 7.074219-14.144532 14.144531-7.070312-7.070312c-3.90625-3.902344-10.238281-3.898438-14.144531.003906-3.902344 3.90625-3.902344 10.238281.007812 14.144531l7.066407 7.0625-14.140626 14.140625-7.066406-7.070312c-3.90625-3.902344-10.238281-3.902344-14.144531 0-3.90625 3.90625-3.90625 10.238281 0 14.144531l7.070313 7.066406-96.628907 96.640625-40.191406 13.390625c-7.015625 2.335938-9.125 11.257813-3.964844 16.496094zm305.054688-262.515625c4.277343-4.277344 7.136719-9.679687 8.265625-15.628906l20.082031-106.164063 25.511719 25.515625c3.90625 3.90625 10.234375 3.90625 14.140625 0s3.90625-10.238281 0-14.140625c-2.09375-2.097656 11 11-42.417969-42.429687-3.910156-3.910157-3.910156-10.230469 0-14.140625 3.90625-3.90625 10.226562-3.90625 14.136719 0l141.417969 141.417968c3.90625 3.910157 3.90625 10.230469 0 14.140626-3.910157 3.90625-10.226563 3.90625-14.136719-.003907l-42.433594-42.417969c-3.90625-3.90625-10.234375-3.902343-14.140625 0-3.90625 3.90625-3.902344 10.238282 0 14.144532l28.542969 28.53125-108.535157 17.136718c-6.292968.996094-12.007812 3.910157-16.523437 8.425782l-30.199219 30.1875c-8.480468-2.257813-17.195312-3.058594-25.785156-2.492188zm-252.335938 250.851563c1.472657-.488282 2.8125-1.316407 3.910157-2.414063 140.890624-140.894531 169.265624-169.265625 169.128906-169.128906 22.804687-22.6875 60.816406-23.804688 84.734375.109375 23.386719 23.398437 23.386719 61.464844 0 84.859375l-70.707031 70.707031c-23.398438 23.398438-61.464844 23.394531-84.859376 0-4.882812-4.882812-8.800781-10.4375-11.722656-16.558594l15.523438-15.523437c1.75 6.582031 5.199218 12.796875 10.347656 17.945312 15.585938 15.585938 40.960938 15.589844 56.566406-.003906 8.132813-8.132813 59.625-59.632813 70.703125-70.710937 15.617188-15.605469 15.617188-40.945313 0-56.5625-15.632812-15.632813-40.976562-15.601563-56.554687-.007813-19.578125 19.578125-149.738282 149.730469-169.023438 169.011719-1.097656 1.097656-1.925781 2.4375-2.414062 3.910156l-9.023438 27.078125-33.6875-33.683594zm229.480469-114.859376-28.273438-28.277343c7.789063-7.796875 20.480469-7.804688 28.277344-.003907 7.796875 7.796876 7.808594 20.476563-.003906 28.28125zm-42.417969-14.136718 28.277344 28.277344-14.136719 14.140624-28.28125-28.28125zm-28.28125 28.28125 28.28125 28.28125-14.140625 14.140625-28.28125-28.28125zm-28.285156 28.285156 28.285156 28.28125c-7.804687 7.792969-20.492187 7.796875-28.28125.003906-7.800781-7.800781-7.800781-20.488281-.003906-28.285156zm0 0"/></svg>